<svg xmlns="http://www.w3.org/2000/svg" xmlns:xlink="http://www.w3.org/1999/xlink" viewBox="0 0 1200 630"><defs><style>.cls-1{fill:none;}.cls-2{fill:#90f4b9;}.cls-3{font-size:50px;letter-spacing:0.04em;}.cls-18,.cls-26,.cls-3{font-family:YuGo-Bold-83pv-RKSJ-H, YuGothic;font-weight:700;}.cls-4{clip-path:url(#clip-path);}.cls-5{fill:#921a12;}.cls-6{fill:#e8382f;}.cls-7{fill:#f8b62d;}.cls-8{fill:#00afec;}.cls-9{fill:#aacf52;}.cls-10{fill:#f08437;}.cls-11{fill:#ee87b4;}.cls-12{clip-path:url(#clip-path-2);}.cls-13{fill:#00618b;}.cls-14{fill:#0099d9;}.cls-15{clip-path:url(#clip-path-3);}.cls-16{clip-path:url(#clip-path-4);}.cls-17{fill:#faff31;}.cls-18{font-size:147.1px;letter-spacing:0.04em;}.cls-19{clip-path:url(#clip-path-5);}.cls-20{fill:#67391b;}.cls-21{fill:#fff;}.cls-22{fill:#4eb45e;}.cls-23{fill:#78c283;}.cls-24{fill:#925f33;}.cls-25{font-size:19.35px;font-family:KozGoPr6N-Regular-83pv-RKSJ-H, Kozuka Gothic Pr6N;letter-spacing:0.04em;}.cls-25,.cls-26{fill:#3d3027;}.cls-26{font-size:38.94px;letter-spacing:0.04em;}</style><clipPath id="clip-path" transform="translate(-7.38)"><rect class="cls-1" x="827" y="315" width="380" height="350"/></clipPath><clipPath id="clip-path-2" transform="translate(-7.38)"><rect class="cls-1" x="446" y="315" width="761.28" height="311.99"/></clipPath><clipPath id="clip-path-3" transform="translate(-7.38)"><rect class="cls-1" y="295" width="390" height="336"/></clipPath><clipPath id="clip-path-4" transform="translate(-7.38)"><rect class="cls-1" x="14" y="316" width="761.28" height="311.99"/></clipPath><clipPath id="clip-path-5" transform="translate(-7.38)"><rect class="cls-1" x="496" y="508" width="89.56" height="87.83"/></clipPath></defs><title>アセット 3</title><g id="レイヤー_2" data-name="レイヤー 2"><g id="レイヤー_1-2" data-name="レイヤー 1"><rect class="cls-2" width="1200" height="630"/><text class="cls-3" transform="translate(281 104.25)">今月の予算を達成しました</text><g class="cls-4"><path class="cls-5" d="M589,541.9s-22.44-51-77.15-61.28l.54,33,27.25,26.26,15.29,2.33L589,541.9Z" transform="translate(-7.38)"/><path class="cls-6" d="M511.76,481.25,446,627l142.37-84.86s-54.4-3.55-76.61-60.87Z" transform="translate(-7.38)"/><polygon class="cls-7" points="520.67 578.08 493.89 504.5 486.51 520.86 509.71 584.61 520.67 578.08 520.67 578.08"/><polygon class="cls-7" points="492.46 594.9 474.88 546.62 467.5 562.98 481.5 601.43 492.46 594.9 492.46 594.9"/><polygon class="cls-7" points="511.13 503.18 510.6 508 515.03 510.01 510.27 510.99 509.73 515.82 507.32 511.6 502.57 512.58 505.84 508.99 503.43 504.77 507.86 506.77 511.13 503.18 511.13 503.18"/><polygon class="cls-7" points="547.73 540.56 551.22 543.95 555.51 541.68 553.37 546.04 556.86 549.42 552.05 548.74 549.91 553.1 549.08 548.31 544.26 547.62 548.56 545.35 547.73 540.56 547.73 540.56"/><polygon class="cls-7" points="492.33 569.37 495.82 572.75 500.12 570.48 497.98 574.85 501.46 578.23 496.65 577.54 494.51 581.9 493.68 577.12 488.87 576.43 493.17 574.16 492.33 569.37 492.33 569.37"/><polygon class="cls-7" points="462.46 594.98 462.83 599.83 467.56 600.97 463.06 602.82 463.44 607.67 460.29 603.97 455.8 605.82 458.34 601.68 455.19 597.99 459.91 599.12 462.46 594.98 462.46 594.98"/><polygon class="cls-7" points="530.87 554.79 530.93 558.22 534.21 559.22 530.96 560.34 531.02 563.77 528.96 561.03 525.71 562.15 527.68 559.34 525.61 556.6 528.9 557.6 530.87 554.79 530.87 554.79"/><polygon class="cls-7" points="487.79 544.4 487.85 547.84 491.13 548.84 487.89 549.96 487.95 553.39 485.88 550.65 482.63 551.77 484.6 548.96 482.53 546.22 485.82 547.22 487.79 544.4 487.79 544.4"/><polygon class="cls-7" points="466.94 584 468.76 585.77 471 584.59 469.88 586.87 471.69 588.64 469.18 588.27 468.06 590.54 467.63 588.04 465.13 587.68 467.37 586.5 466.94 584 466.94 584"/><polygon class="cls-7" points="517.92 526.38 523.07 531.78 529.8 528.55 526.25 535.12 531.41 540.52 524.07 539.18 520.52 545.75 519.53 538.35 512.19 537.01 518.91 533.78 517.92 526.38 517.92 526.38"/><path class="cls-8" d="M569,520.26l2.85,4.36s13.35-21.08,47.89-26.42,94.51,21.71,144.36-3.43S816,442.27,816,442.27l-12.58-3S784.19,473.76,761,484c-23.41,10.3-45.56,17.72-88.14,11.19-31.18-4.78-79.38-12.74-103.82,25.09Z" transform="translate(-7.38)"/><path class="cls-9" d="M553.25,506.45l4,2.55s12.85-43.32,61.6-56.61,91.29-43.43,95.72-93.06l-12.85.89s-4,58.5-86.42,84.2c-59.17,18.45-62,62-62,62Z" transform="translate(-7.38)"/><path class="cls-10" d="M531,493.37l3.66-.22s-8-39-1.77-59.38,31.13-47.86,27.59-92.18l-9,.89s5.32,27.37-20.94,76.56c-17.85,33.44.44,74.34.44,74.34Z" transform="translate(-7.38)"/><path class="cls-11" d="M550.92,469.11l3.21,1s16-45.2,55.84-59.38,41.66-83.31,35.45-95.72l-11.52,1.77s12.41,58.5-24.82,81.54-49.3,40.66-58.16,70.8Z" transform="translate(-7.38)"/><polygon class="cls-11" points="614.34 526.52 602.74 524.2 600.92 513.11 614.34 513.11 614.34 526.52 614.34 526.52"/><polygon class="cls-11" points="765.23 464.13 757.19 462.51 755.93 454.82 765.23 454.82 765.23 464.13 765.23 464.13"/><polygon class="cls-8" points="536.81 446.39 534.52 438.71 540.58 434.11 546.02 438.06 536.81 446.39 536.81 446.39"/><polygon class="cls-8" points="658.07 393.82 655.78 386.14 661.84 381.54 667.28 385.49 658.07 393.82 658.07 393.82"/><polygon class="cls-10" points="602.01 473.21 600.46 480.66 593.31 481.78 593.37 473.14 602.01 473.21 602.01 473.21"/><polygon class="cls-10" points="617.13 329.35 615.59 336.81 608.43 337.93 608.5 329.29 617.13 329.35 617.13 329.35"/><polygon class="cls-9" points="610.44 418.65 616.41 423.38 614.2 430.27 606.5 426.34 610.44 418.65 610.44 418.65"/><polygon class="cls-9" points="697.13 434.65 695.96 446.73 684.82 449.73 683.43 436.03 697.13 434.65 697.13 434.65"/><polygon class="cls-9" points="568.11 361.92 574.08 366.66 571.87 373.55 564.18 369.62 568.11 361.92 568.11 361.92"/><polygon class="cls-10" points="524.91 373 530.88 377.74 528.66 384.63 520.97 380.69 524.91 373 524.91 373"/><polygon class="cls-10" points="726.29 433.34 734.47 439.82 731.44 449.26 720.91 443.88 726.29 433.34 726.29 433.34"/><polygon class="cls-8" points="500.32 411.24 503.45 415.05 508.04 413.26 505.38 417.41 508.5 421.22 503.73 419.97 501.07 424.12 500.79 419.2 496.02 417.95 500.61 416.16 500.32 411.24 500.32 411.24"/><polygon class="cls-8" points="583.36 432.03 586.48 435.84 591.07 434.05 588.41 438.2 591.53 442.01 586.77 440.76 584.1 444.91 583.82 439.99 579.05 438.74 583.64 436.95 583.36 432.03 583.36 432.03"/><polygon class="cls-8" points="713.96 397.56 717.09 401.37 721.68 399.58 719.01 403.73 722.14 407.54 717.37 406.29 714.71 410.44 714.42 405.52 709.65 404.27 714.25 402.48 713.96 397.56 713.96 397.56"/><polygon class="cls-9" points="606.8 363.7 604.67 370.07 610.07 374.06 603.35 374.01 601.22 380.38 599.2 373.97 592.48 373.91 597.95 370.01 595.93 363.6 601.33 367.6 606.8 363.7 606.8 363.7"/><polygon class="cls-11" points="558.92 403.29 561.47 407.89 566.63 406.9 563.04 410.74 565.58 415.34 560.82 413.11 557.23 416.95 557.87 411.73 553.11 409.5 558.27 408.51 558.92 403.29 558.92 403.29"/><polygon class="cls-11" points="693.98 475.95 696.52 480.56 701.68 479.56 698.09 483.4 700.64 488 695.87 485.78 692.28 489.62 692.93 484.4 688.16 482.17 693.33 481.17 693.98 475.95 693.98 475.95"/><polygon class="cls-10" points="649.41 463.99 646.46 469.97 651.24 474.63 644.63 473.67 641.68 479.66 640.55 473.08 633.95 472.12 639.85 469.01 638.72 462.44 643.5 467.09 649.41 463.99 649.41 463.99"/><g class="cls-12"><path class="cls-13" d="M1064.4,541.9s22.44-51,77.15-61.28l-.54,33-27.25,26.26-15.29,2.33-34.07-.33Z" transform="translate(-7.38)"/><path class="cls-14" d="M1141.62,481.25,1207.38,627,1065,542.12s54.4-3.55,76.61-60.87Z" transform="translate(-7.38)"/></g><polygon class="cls-7" points="1117.95 578.08 1144.73 504.5 1152.11 520.86 1128.91 584.61 1117.95 578.08 1117.95 578.08"/><polygon class="cls-7" points="1146.16 594.9 1163.74 546.62 1171.12 562.98 1157.12 601.43 1146.16 594.9 1146.16 594.9"/><polygon class="cls-7" points="1127.49 503.18 1128.02 508 1123.6 510.01 1128.36 510.99 1128.89 515.82 1131.3 511.6 1136.06 512.58 1132.78 508.99 1135.19 504.77 1130.76 506.77 1127.49 503.18 1127.49 503.18"/><polygon class="cls-7" points="1090.89 540.56 1087.4 543.95 1083.11 541.68 1085.25 546.04 1081.76 549.42 1086.57 548.74 1088.71 553.1 1089.55 548.31 1094.36 547.62 1090.06 545.35 1090.89 540.56 1090.89 540.56"/><polygon class="cls-7" points="1146.29 569.37 1142.8 572.75 1138.51 570.48 1140.64 574.85 1137.16 578.23 1141.97 577.54 1144.11 581.9 1144.94 577.12 1149.75 576.43 1145.46 574.16 1146.29 569.37 1146.29 569.37"/><polygon class="cls-7" points="1176.17 594.98 1175.79 599.83 1171.07 600.97 1175.56 602.82 1175.18 607.67 1178.33 603.97 1182.83 605.82 1180.28 601.68 1183.43 597.99 1178.71 599.12 1176.17 594.98 1176.17 594.98"/><polygon class="cls-7" points="1107.76 554.79 1107.69 558.22 1104.41 559.22 1107.66 560.34 1107.6 563.77 1109.66 561.03 1112.91 562.15 1110.94 559.34 1113.01 556.6 1109.72 557.6 1107.76 554.79 1107.76 554.79"/><polygon class="cls-7" points="1150.84 544.4 1150.77 547.84 1147.49 548.84 1150.74 549.96 1150.67 553.39 1152.74 550.65 1155.99 551.77 1154.02 548.96 1156.09 546.22 1152.8 547.22 1150.84 544.4 1150.84 544.4"/><polygon class="cls-7" points="1171.68 584 1169.87 585.77 1167.62 584.59 1168.74 586.87 1166.93 588.64 1169.44 588.27 1170.56 590.54 1170.99 588.04 1173.5 587.68 1171.25 586.5 1171.68 584 1171.68 584"/><polygon class="cls-7" points="1120.7 526.38 1115.55 531.78 1108.83 528.55 1112.37 535.12 1107.21 540.52 1114.56 539.18 1118.1 545.75 1119.09 538.35 1126.44 537.01 1119.71 533.78 1120.7 526.38 1120.7 526.38"/><path class="cls-10" d="M1084.37,520.26l-2.85,4.36s-13.35-21.08-47.89-26.42-94.51,21.71-144.36-3.43-51.94-52.49-51.94-52.49l12.58-3S869.19,473.76,892.4,484c23.41,10.3,45.56,17.72,88.14,11.19,31.18-4.78,79.38-12.74,103.82,25.09Z" transform="translate(-7.38)"/><path class="cls-11" d="M1100.14,506.45l-4,2.55s-12.85-43.32-61.6-56.61S943.26,409,938.82,359.32l12.85.89s4,58.5,86.42,84.2c59.17,18.45,62,62,62,62Z" transform="translate(-7.38)"/><path class="cls-8" d="M1122.4,493.37l-3.66-.22s8-39,1.77-59.38-31.13-47.86-27.59-92.18l9,.89s-5.32,27.37,20.94,76.56c17.85,33.44-.44,74.34-.44,74.34Z" transform="translate(-7.38)"/><path class="cls-9" d="M1102.46,469.11l-3.21,1s-16-45.2-55.84-59.38S1001.75,327.41,1008,315l11.52,1.77s-12.41,58.5,24.82,81.54,49.3,40.66,58.17,70.8Z" transform="translate(-7.38)"/><polygon class="cls-11" points="1024.29 526.52 1035.88 524.2 1037.7 513.11 1024.29 513.11 1024.29 526.52 1024.29 526.52"/><polygon class="cls-11" points="873.39 464.13 881.43 462.51 882.7 454.82 873.39 454.82 873.39 464.13 873.39 464.13"/><polygon class="cls-8" points="1101.81 446.39 1104.11 438.71 1098.05 434.11 1092.6 438.06 1101.81 446.39 1101.81 446.39"/><polygon class="cls-8" points="980.55 393.82 982.84 386.14 976.78 381.54 971.34 385.49 980.55 393.82 980.55 393.82"/><polygon class="cls-10" points="1036.62 473.21 1038.16 480.66 1045.31 481.78 1045.26 473.14 1036.62 473.21 1036.62 473.21"/><polygon class="cls-10" points="1021.49 329.35 1023.03 336.81 1030.19 337.93 1030.13 329.29 1021.49 329.35 1021.49 329.35"/><polygon class="cls-9" points="1028.18 418.65 1022.22 423.38 1024.43 430.27 1032.12 426.34 1028.18 418.65 1028.18 418.65"/><polygon class="cls-9" points="941.49 434.65 942.66 446.73 953.8 449.73 955.19 436.03 941.49 434.65 941.49 434.65"/><polygon class="cls-9" points="1070.51 361.92 1064.54 366.66 1066.75 373.55 1074.44 369.62 1070.51 361.92 1070.51 361.92"/><polygon class="cls-10" points="1113.72 373 1107.75 377.74 1109.96 384.63 1117.65 380.69 1113.72 373 1113.72 373"/><polygon class="cls-10" points="912.33 433.34 904.15 439.82 907.18 449.26 917.71 443.88 912.33 433.34 912.33 433.34"/><polygon class="cls-8" points="1138.3 411.24 1135.18 415.05 1130.58 413.26 1133.24 417.41 1130.12 421.22 1134.89 419.97 1137.55 424.12 1137.84 419.2 1142.61 417.95 1138.01 416.16 1138.3 411.24 1138.3 411.24"/><polygon class="cls-8" points="1055.27 432.03 1052.14 435.84 1047.55 434.05 1050.21 438.2 1047.09 442.01 1051.86 440.76 1054.52 444.91 1054.8 439.99 1059.57 438.74 1054.98 436.95 1055.27 432.03 1055.27 432.03"/><polygon class="cls-8" points="924.66 397.56 921.54 401.37 916.95 399.58 919.61 403.73 916.48 407.54 921.25 406.29 923.91 410.44 924.2 405.52 928.97 404.27 924.38 402.48 924.66 397.56 924.66 397.56"/><polygon class="cls-9" points="1031.82 363.7 1033.96 370.07 1028.56 374.06 1035.27 374.01 1037.4 380.38 1039.43 373.97 1046.14 373.91 1040.67 370.01 1042.69 363.6 1037.29 367.6 1031.82 363.7 1031.82 363.7"/><polygon class="cls-11" points="1079.7 403.29 1077.15 407.89 1071.99 406.9 1075.58 410.74 1073.04 415.34 1077.8 413.11 1081.4 416.95 1080.75 411.73 1085.51 409.5 1080.35 408.51 1079.7 403.29 1079.7 403.29"/><polygon class="cls-11" points="944.64 475.95 942.1 480.56 936.94 479.56 940.53 483.4 937.99 488 942.75 485.78 946.34 489.62 945.69 484.4 950.46 482.17 945.29 481.17 944.64 475.95 944.64 475.95"/><polygon class="cls-10" points="989.21 463.99 992.17 469.97 987.39 474.63 993.99 473.67 996.94 479.66 998.07 473.08 1004.68 472.12 998.77 469.01 999.9 462.44 995.12 467.09 989.21 463.99 989.21 463.99"/></g><g class="cls-15"><path class="cls-5" d="M157,542.9s-22.44-51-77.15-61.28l.54,33,27.25,26.26,15.29,2.33L157,542.9Z" transform="translate(-7.38)"/><path class="cls-6" d="M79.76,482.25,14,628l142.37-84.86s-54.4-3.55-76.61-60.87Z" transform="translate(-7.38)"/><polygon class="cls-7" points="88.67 579.08 61.89 505.5 54.51 521.86 77.71 585.61 88.67 579.08 88.67 579.08"/><polygon class="cls-7" points="60.46 595.9 42.88 547.62 35.5 563.98 49.5 602.43 60.46 595.9 60.46 595.9"/><polygon class="cls-7" points="79.13 504.18 78.6 509 83.03 511.01 78.27 511.99 77.73 516.82 75.33 512.6 70.57 513.58 73.84 509.99 71.43 505.77 75.86 507.77 79.13 504.18 79.13 504.18"/><polygon class="cls-7" points="115.73 541.56 119.22 544.95 123.51 542.68 121.37 547.04 124.86 550.42 120.05 549.74 117.91 554.1 117.08 549.31 112.26 548.62 116.56 546.35 115.73 541.56 115.73 541.56"/><polygon class="cls-7" points="60.33 570.37 63.82 573.75 68.12 571.48 65.98 575.85 69.46 579.23 64.65 578.54 62.51 582.9 61.68 578.12 56.87 577.43 61.16 575.16 60.33 570.37 60.33 570.37"/><polygon class="cls-7" points="30.46 595.98 30.83 600.83 35.56 601.97 31.07 603.82 31.44 608.67 28.29 604.97 23.8 606.82 26.34 602.68 23.19 598.99 27.91 600.12 30.46 595.98 30.46 595.98"/><polygon class="cls-7" points="98.86 555.79 98.93 559.22 102.21 560.22 98.96 561.34 99.03 564.77 96.96 562.03 93.71 563.15 95.68 560.34 93.61 557.6 96.9 558.6 98.86 555.79 98.86 555.79"/><polygon class="cls-7" points="55.79 545.4 55.85 548.84 59.13 549.84 55.89 550.96 55.95 554.39 53.88 551.65 50.63 552.77 52.6 549.96 50.53 547.22 53.82 548.22 55.79 545.4 55.79 545.4"/><polygon class="cls-7" points="34.94 585 36.76 586.77 39 585.59 37.88 587.87 39.69 589.64 37.18 589.27 36.06 591.54 35.63 589.04 33.13 588.68 35.37 587.5 34.94 585 34.94 585"/><polygon class="cls-7" points="85.92 527.38 91.07 532.78 97.8 529.55 94.25 536.12 99.41 541.52 92.07 540.18 88.52 546.75 87.53 539.35 80.19 538.01 86.91 534.78 85.92 527.38 85.92 527.38"/><path class="cls-8" d="M137,521.26l2.85,4.36s13.35-21.08,47.89-26.42,94.51,21.71,144.36-3.43S384,443.27,384,443.27l-12.58-3S352.19,474.76,329,485c-23.41,10.3-45.56,17.72-88.14,11.19-31.18-4.78-79.38-12.74-103.82,25.09Z" transform="translate(-7.38)"/><path class="cls-9" d="M121.25,507.45l4,2.55s12.85-43.32,61.6-56.61,91.29-43.43,95.72-93.06l-12.85.89s-4,58.5-86.42,84.2c-59.17,18.45-62,62-62,62Z" transform="translate(-7.38)"/><path class="cls-10" d="M99,494.37l3.66-.22s-8-39-1.77-59.38,31.13-47.86,27.59-92.18l-9,.89s5.32,27.37-20.94,76.56c-17.85,33.44.44,74.34.44,74.34Z" transform="translate(-7.38)"/><path class="cls-11" d="M118.92,470.11l3.21,1s16-45.2,55.84-59.38,41.66-83.31,35.45-95.72l-11.52,1.77s12.41,58.5-24.82,81.54-49.3,40.66-58.16,70.8Z" transform="translate(-7.38)"/><polygon class="cls-11" points="182.34 527.52 170.74 525.2 168.92 514.11 182.34 514.11 182.34 527.52 182.34 527.52"/><polygon class="cls-11" points="333.23 465.13 325.19 463.51 323.93 455.82 333.23 455.82 333.23 465.13 333.23 465.13"/><polygon class="cls-8" points="104.81 447.39 102.52 439.71 108.58 435.11 114.02 439.06 104.81 447.39 104.81 447.39"/><polygon class="cls-8" points="226.07 394.82 223.78 387.14 229.84 382.54 235.28 386.49 226.07 394.82 226.07 394.82"/><polygon class="cls-10" points="170.01 474.21 168.46 481.66 161.31 482.78 161.37 474.14 170.01 474.21 170.01 474.21"/><polygon class="cls-10" points="185.13 330.35 183.59 337.81 176.43 338.93 176.5 330.29 185.13 330.35 185.13 330.35"/><polygon class="cls-9" points="178.44 419.65 184.41 424.38 182.19 431.27 174.5 427.34 178.44 419.65 178.44 419.65"/><polygon class="cls-9" points="265.13 435.65 263.96 447.73 252.82 450.73 251.44 437.03 265.13 435.65 265.13 435.65"/><polygon class="cls-9" points="136.11 362.92 142.08 367.66 139.87 374.55 132.18 370.62 136.11 362.92 136.11 362.92"/><polygon class="cls-10" points="92.91 374 98.88 378.74 96.67 385.63 88.97 381.69 92.91 374 92.91 374"/><polygon class="cls-10" points="294.29 434.34 302.47 440.82 299.44 450.26 288.91 444.88 294.29 434.34 294.29 434.34"/><polygon class="cls-8" points="68.32 412.24 71.45 416.05 76.04 414.26 73.38 418.41 76.5 422.22 71.73 420.97 69.07 425.12 68.78 420.2 64.02 418.95 68.61 417.16 68.32 412.24 68.32 412.24"/><polygon class="cls-8" points="151.36 433.03 154.48 436.84 159.07 435.05 156.41 439.2 159.53 443.01 154.77 441.76 152.1 445.91 151.82 440.99 147.05 439.74 151.64 437.95 151.36 433.03 151.36 433.03"/><polygon class="cls-8" points="281.96 398.56 285.08 402.37 289.68 400.58 287.01 404.73 290.14 408.54 285.37 407.29 282.71 411.44 282.42 406.52 277.65 405.27 282.25 403.48 281.96 398.56 281.96 398.56"/><polygon class="cls-9" points="174.8 364.7 172.67 371.07 178.07 375.06 171.35 375.01 169.22 381.38 167.2 374.97 160.48 374.91 165.95 371.01 163.93 364.6 169.33 368.6 174.8 364.7 174.8 364.7"/><polygon class="cls-11" points="126.92 404.29 129.47 408.89 134.63 407.9 131.04 411.74 133.58 416.34 128.82 414.11 125.22 417.95 125.87 412.73 121.11 410.5 126.28 409.51 126.92 404.29 126.92 404.29"/><polygon class="cls-11" points="261.98 476.95 264.52 481.56 269.69 480.56 266.09 484.4 268.64 489 263.87 486.78 260.28 490.62 260.93 485.4 256.17 483.17 261.33 482.17 261.98 476.95 261.98 476.95"/><polygon class="cls-10" points="217.41 464.99 214.46 470.97 219.24 475.63 212.63 474.67 209.68 480.66 208.55 474.08 201.94 473.12 207.85 470.01 206.72 463.44 211.5 468.09 217.41 464.99 217.41 464.99"/><g class="cls-16"><path class="cls-13" d="M632.4,542.9s22.44-51,77.15-61.28l-.54,33-27.25,26.26-15.29,2.33-34.07-.33Z" transform="translate(-7.38)"/><path class="cls-14" d="M709.62,482.25,775.38,628,633,543.12s54.4-3.55,76.61-60.87Z" transform="translate(-7.38)"/></g><polygon class="cls-7" points="685.95 579.08 712.73 505.5 720.11 521.86 696.91 585.61 685.95 579.08 685.95 579.08"/><polygon class="cls-7" points="714.16 595.9 731.74 547.62 739.12 563.98 725.12 602.43 714.16 595.9 714.16 595.9"/><polygon class="cls-7" points="695.49 504.18 696.02 509 691.6 511.01 696.36 511.99 696.89 516.82 699.3 512.6 704.06 513.58 700.78 509.99 703.19 505.77 698.76 507.77 695.49 504.18 695.49 504.18"/><polygon class="cls-7" points="658.89 541.56 655.4 544.95 651.11 542.68 653.25 547.04 649.76 550.42 654.57 549.74 656.72 554.1 657.55 549.31 662.36 548.62 658.06 546.35 658.89 541.56 658.89 541.56"/><polygon class="cls-7" points="714.29 570.37 710.8 573.75 706.5 571.48 708.64 575.85 705.16 579.23 709.97 578.54 712.11 582.9 712.94 578.12 717.75 577.43 713.46 575.16 714.29 570.37 714.29 570.37"/><polygon class="cls-7" points="744.17 595.98 743.79 600.83 739.07 601.97 743.56 603.82 743.18 608.67 746.33 604.97 750.83 606.82 748.28 602.68 751.43 598.99 746.71 600.12 744.17 595.98 744.17 595.98"/><polygon class="cls-7" points="675.76 555.79 675.7 559.22 672.41 560.22 675.66 561.34 675.6 564.77 677.66 562.03 680.91 563.15 678.94 560.34 681.01 557.6 677.73 558.6 675.76 555.79 675.76 555.79"/><polygon class="cls-7" points="718.84 545.4 718.77 548.84 715.49 549.84 718.74 550.96 718.67 554.39 720.74 551.65 723.99 552.77 722.02 549.96 724.09 547.22 720.8 548.22 718.84 545.4 718.84 545.4"/><polygon class="cls-7" points="739.68 585 737.87 586.77 735.62 585.59 736.75 587.87 734.93 589.64 737.44 589.27 738.56 591.54 738.99 589.04 741.5 588.68 739.25 587.5 739.68 585 739.68 585"/><polygon class="cls-7" points="688.71 527.38 683.55 532.78 676.83 529.55 680.37 536.12 675.21 541.52 682.56 540.18 686.1 546.75 687.09 539.35 694.44 538.01 687.71 534.78 688.71 527.38 688.71 527.38"/><path class="cls-10" d="M652.37,521.26l-2.85,4.36s-13.35-21.08-47.89-26.42-94.51,21.71-144.36-3.43-51.94-52.49-51.94-52.49l12.58-3S437.19,474.76,460.4,485c23.41,10.3,45.56,17.72,88.14,11.19,31.18-4.78,79.38-12.74,103.82,25.09Z" transform="translate(-7.38)"/><path class="cls-11" d="M668.14,507.45l-4,2.55s-12.85-43.32-61.6-56.61S511.26,410,506.82,360.32l12.85.89s4,58.5,86.42,84.2c59.17,18.45,62,62,62,62Z" transform="translate(-7.38)"/><path class="cls-8" d="M690.4,494.37l-3.66-.22s8-39,1.77-59.38-31.13-47.86-27.59-92.18l9,.89s-5.32,27.37,20.94,76.56c17.85,33.44-.44,74.34-.44,74.34Z" transform="translate(-7.38)"/><path class="cls-9" d="M670.46,470.11l-3.21,1s-16-45.2-55.84-59.38S569.75,328.41,576,316l11.52,1.77s-12.41,58.5,24.82,81.54,49.3,40.66,58.17,70.8Z" transform="translate(-7.38)"/><polygon class="cls-11" points="592.29 527.52 603.88 525.2 605.7 514.11 592.29 514.11 592.29 527.52 592.29 527.52"/><polygon class="cls-11" points="441.39 465.13 449.44 463.51 450.7 455.82 441.39 455.82 441.39 465.13 441.39 465.13"/><polygon class="cls-8" points="669.81 447.39 672.11 439.71 666.05 435.11 660.6 439.06 669.81 447.39 669.81 447.39"/><polygon class="cls-8" points="548.55 394.82 550.84 387.14 544.78 382.54 539.34 386.49 548.55 394.82 548.55 394.82"/><polygon class="cls-10" points="604.62 474.21 606.16 481.66 613.31 482.78 613.25 474.14 604.62 474.21 604.62 474.21"/><polygon class="cls-10" points="589.49 330.35 591.03 337.81 598.19 338.93 598.13 330.29 589.49 330.35 589.49 330.35"/><polygon class="cls-9" points="596.18 419.65 590.22 424.38 592.43 431.27 600.12 427.34 596.18 419.65 596.18 419.65"/><polygon class="cls-9" points="509.49 435.65 510.66 447.73 521.8 450.73 523.19 437.03 509.49 435.65 509.49 435.65"/><polygon class="cls-9" points="638.51 362.92 632.54 367.66 634.75 374.55 642.44 370.62 638.51 362.92 638.51 362.92"/><polygon class="cls-10" points="681.72 374 675.75 378.74 677.96 385.63 685.65 381.69 681.72 374 681.72 374"/><polygon class="cls-10" points="480.33 434.34 472.15 440.82 475.18 450.26 485.71 444.88 480.33 434.34 480.33 434.34"/><polygon class="cls-8" points="706.3 412.24 703.18 416.05 698.58 414.26 701.25 418.41 698.12 422.22 702.89 420.97 705.55 425.12 705.84 420.2 710.61 418.95 706.01 417.16 706.3 412.24 706.3 412.24"/><polygon class="cls-8" points="623.27 433.03 620.14 436.84 615.55 435.05 618.21 439.2 615.09 443.01 619.86 441.76 622.52 445.91 622.8 440.99 627.57 439.74 622.98 437.95 623.27 433.03 623.27 433.03"/><polygon class="cls-8" points="492.66 398.56 489.54 402.37 484.94 400.58 487.61 404.73 484.48 408.54 489.25 407.29 491.91 411.44 492.2 406.52 496.97 405.27 492.38 403.48 492.66 398.56 492.66 398.56"/><polygon class="cls-9" points="599.82 364.7 601.96 371.07 596.56 375.06 603.27 375.01 605.4 381.38 607.43 374.97 614.14 374.91 608.67 371.01 610.69 364.6 605.29 368.6 599.82 364.7 599.82 364.7"/><polygon class="cls-11" points="647.7 404.29 645.15 408.89 639.99 407.9 643.58 411.74 641.04 416.34 645.8 414.11 649.4 417.95 648.75 412.73 653.51 410.5 648.35 409.51 647.7 404.29 647.7 404.29"/><polygon class="cls-11" points="512.64 476.95 510.1 481.56 504.94 480.56 508.53 484.4 505.99 489 510.75 486.78 514.34 490.62 513.69 485.4 518.46 483.17 513.29 482.17 512.64 476.95 512.64 476.95"/><polygon class="cls-10" points="557.21 464.99 560.17 470.97 555.39 475.63 561.99 474.67 564.94 480.66 566.07 474.08 572.68 473.12 566.77 470.01 567.9 463.44 563.12 468.09 557.21 464.99 557.21 464.99"/></g><polygon class="cls-17" points="1028.15 99.97 1012.62 73.07 997.09 99.97 1028.15 99.97"/><polygon class="cls-17" points="1139.7 211.99 1104.38 203.62 1114.79 238.39 1139.7 211.99"/><polygon class="cls-17" points="1148.25 117.11 1110.13 90.88 1106.48 137.01 1148.25 117.11"/><polygon class="cls-17" points="186.19 99.97 201.72 73.07 217.25 99.97 186.19 99.97"/><polygon class="cls-17" points="74.64 211.99 109.96 203.62 99.56 238.39 74.64 211.99"/><polygon class="cls-17" points="66.09 117.11 104.21 90.88 107.87 137.01 66.09 117.11"/><text class="cls-18" transform="translate(403.36 354.89)">100%</text><g class="cls-19"><path class="cls-20" d="M540.78,594.29a4.82,4.82,0,0,0,.06-.55c0-.63-.05-1.27-.12-1.89-.83-7.54-.49-15.07-.05-22.61.19-3.31.25-6.63.36-9.95a10.58,10.58,0,0,0-.1-1.2c-2.1-.08-4.11.06-6.07-.74a8.58,8.58,0,0,0-.27,1c-.19,1.57-.41,3.13-.54,4.71-.22,2.68-.36,5.36-.55,8a108.58,108.58,0,0,0,.63,22.34c0,.07.08.13.18.29l6.47.54Zm-34.05-15.9c-.13-2.87-.31-5.68-.6-8.72a21.21,21.21,0,0,0-2.19,1.09,14.77,14.77,0,0,0-5.32,6.22,10.77,10.77,0,0,0-1,5.76,16,16,0,0,0,3.81,8.64,8.41,8.41,0,0,0,7.63,2.9,7.69,7.69,0,0,0,3.66-1.21c1.22-.79,2.51-1.46,3.76-2.21.61-.37,1.26-.76,1.39-1.53.18-1,.27-2.1.35-3.16a1.22,1.22,0,0,0-.17-.55c-.8.14-1.48.31-2.17.37a.73.73,0,0,1-.84-.79.75.75,0,0,1,.79-.72l1.91-.14a3.31,3.31,0,0,0-.84-2.1c-.79.27-1.57.55-2.35.8a.66.66,0,0,1-.92-.49,1.28,1.28,0,0,1,.39-.87c.17-.18.5-.21.75-.32s.6-.29,1.08-.52a11.66,11.66,0,0,0-1.29-.9,7.13,7.13,0,0,0-7,.12c-.14.08-.28.3-.36.28-.94-.31-1.5.38-2.2.75a1,1,0,0,1-.84-.11A.61.61,0,0,1,504,580a3,3,0,0,1,.8-.68c.58-.33,1.19-.61,1.91-1Zm70.48-5a15.8,15.8,0,0,1,1.44,1.49c.27.36.06.73-.4.71a3.29,3.29,0,0,1-1.32-.37,11.69,11.69,0,0,0-9-.78,3.86,3.86,0,0,0-1.81.92c0,.13,0,.18.06.19.63.33,1.27.64,1.89,1a7.33,7.33,0,0,1,1.19.76.78.78,0,0,1,.27,1c-.27.44-.66.34-1,.15s-.55-.3-.84-.44a12.17,12.17,0,0,0-1.92-.91c-1-.28-1.81-.35-1.92,1a3.42,3.42,0,0,1,1,.37c.8.64,1.56,1.33,2.33,2a1.42,1.42,0,0,1,.57,1.47c-1,.41-1.62-.37-2.27-.88s-1.36-1.16-2.06-1.76a1.93,1.93,0,0,0-.15.36c-.71,4.13.78,7.52,3.6,10.42a8.26,8.26,0,0,0,3.57,2,14,14,0,0,0,10.14-.95,5.16,5.16,0,0,0,2.19-1.95,8.16,8.16,0,0,0,1.25-3.79,14.82,14.82,0,0,0-1.12-6.11,15.92,15.92,0,0,0-4.81-6.91,4,4,0,0,0-.74-.4l-.1,1.31Zm-68.8,4.5,1.13-.18a8.41,8.41,0,0,1,9.83,6.34,10.64,10.64,0,0,1,.28,4.22c-.18,1.18-.13,1.2,1.06,1.51q5.33,1.36,10.68,2.7a7.87,7.87,0,0,0,1.11.1c-.05-.78-.08-1.45-.15-2.11-.17-1.69-.45-3.37-.52-5.06a167.38,167.38,0,0,1,.51-20.13c.19-2.6.58-5.18.87-7.77,0-.3,0-.61.07-1-9.21-2.87-18.22-6.09-26-12-.59,2.73.47,30.21,1.17,33.34ZM561.92,585c-.14-.87-.34-1.68-.4-2.5-.33-4.68,1.84-8.72,7.07-9.85a13.72,13.72,0,0,1,6.11.05c.29.07.59.08,1,.13.8-9,.76-17.89,1.07-26.92-.53.1-.92.15-1.29.24-2.75.72-5.5,1.42-8.24,2.18a120.31,120.31,0,0,0-18,6.16c-2,.93-3.94,2.16-5.9,3.25a1.5,1.5,0,0,0-.77,1.45c-.13,4.34-.26,8.68-.52,13a121.7,121.7,0,0,0,.16,19.28c0,.42.14.83.21,1.28a8.88,8.88,0,0,0,1.38-.31c6-2.47,12-5,18.14-7.47Zm-37.64-61.44a5.32,5.32,0,0,1-.93,1.18,10.86,10.86,0,0,0-3,3.28,50.86,50.86,0,0,0-5.7,13.35,41.81,41.81,0,0,0-.88,4.29c-.2,1.17-.11,1.29.85,1.8s1.73.95,2.63,1.35c2.16,1,4.32,1.94,6.52,2.81a69.78,69.78,0,0,0,6.8,2.42c2.24.63,4.39,1.71,6.81,1.66a8.3,8.3,0,0,0,1.64-.07,23.06,23.06,0,0,0,5.8-2,51.51,51.51,0,0,1,5.88-2.42c4.39-1.66,8.7-3.53,13-5.3a9.22,9.22,0,0,1,1.48-.42c1.62-.36,3.23-.73,4.86-1,1-.19,2-.29,3.09-.44a11.22,11.22,0,0,0-.31-1.45c-.84-2.34-1.62-4.7-2.6-7-1.13-2.64-2.45-5.21-3.69-7.8a1.55,1.55,0,0,1,.47-1.9c.24-.2.52-.35.78-.54a7.49,7.49,0,0,0,2.93-3.91,2.91,2.91,0,0,0-2.94-3.83,4.65,4.65,0,0,0-1.51.27c-2,.76-3.94,1.62-4.87,3.79-.12.27-.61.43-1,.53a.64.64,0,0,1-.8-.53,2.88,2.88,0,0,0-1.2-1.56,14.6,14.6,0,0,0-5.8-3.11,39.84,39.84,0,0,0-13.74-1.15,29.37,29.37,0,0,0-6.75,1.21,2.53,2.53,0,0,0-1.07.45,3.06,3.06,0,0,1-1.81.75c-.84.18-1.21-.19-1-1a7.09,7.09,0,0,0-1.37-6,3.9,3.9,0,0,0-2-1.46,3.24,3.24,0,0,0-3.69.79,6.48,6.48,0,0,0-1.54,5.08c.44,3.16,1.37,6.11,4.58,7.9Zm50.62,21c.76-.09,1.42-.22,2.08-.25,1,0,1.44.46,1.4,1.44-.17,4.9-.3,9.79-.48,14.69-.1,2.72-.24,5.45-.4,8.17a1.92,1.92,0,0,0,.71,1.86,23.79,23.79,0,0,1,2,1.87,16,16,0,0,1,4,6.32,16.6,16.6,0,0,1,1.3,6.33,10,10,0,0,1-1.53,5,6.63,6.63,0,0,1-2.8,2.5,15.57,15.57,0,0,1-11.41,1,11.07,11.07,0,0,1-6.46-5.43c-.27-.48-.53-1-.81-1.48a3.83,3.83,0,0,0-.72.13l-16,6.45c-.91.37-1.83.71-2.72,1.1a1.05,1.05,0,0,0-.56.54,1.32,1.32,0,0,1-1.58.93q-2.54-.18-5.08-.4a3.76,3.76,0,0,0-2.09.14c-.46.22-.85,0-1-.5-.07-.22-.11-.45-.17-.73-1.7-.42-3.39-.82-5.07-1.24q-3.79-1-7.57-1.93a1.47,1.47,0,0,0-1.22.11c-2,1.13-4.09,2.09-6,3.36a7,7,0,0,1-3.74,1.19,10.13,10.13,0,0,1-5.33-.78,10.51,10.51,0,0,1-2.35-1.57A16.55,16.55,0,0,1,496,582.36a12.08,12.08,0,0,1,1.28-6.2,16,16,0,0,1,5.36-6.37A34.51,34.51,0,0,1,506,568a.93.93,0,0,0,.05-.35c-.48-8.21-.55-16.43-.6-24.65,0-.12-.07-.26,0-.35.15-.3.28-.67.53-.83s.71,0,1,.33a25,25,0,0,0,5,3.83,6.35,6.35,0,0,0,.24-.77,49,49,0,0,1,7.21-18.65,28,28,0,0,1,2.27-2.74,13,13,0,0,1-3.58-8.15,8.24,8.24,0,0,1,1.39-5.4,4.64,4.64,0,0,1,5.46-2,6.1,6.1,0,0,1,3.8,3.18,10.41,10.41,0,0,1,1.17,3.83c0,.27.08.53.13.81,1.61-.4,3.16-.89,4.75-1.16a42.07,42.07,0,0,1,17.87.59,16.35,16.35,0,0,1,6.93,3.71c.26.23.54.44.7.58,1.24-.89,2.35-1.78,3.55-2.52a7.94,7.94,0,0,1,3.7-1.14,4.5,4.5,0,0,1,4.44,6.22,9.35,9.35,0,0,1-3,4l-1,.79c2.68,5.67,5.52,11.23,6.88,17.48Z" transform="translate(-7.38)"/></g><path class="cls-21" d="M530.57,530.89a1.2,1.2,0,0,0,1.17,1.23,1.36,1.36,0,0,0,1.16-1.41,1.15,1.15,0,0,0-1.25-1.12,1.17,1.17,0,0,0-1.07,1.31Zm24.55,1.22a1.31,1.31,0,0,0-1.24-1.18,1.46,1.46,0,0,0-1.37,1.47,1.42,1.42,0,0,0,1.38,1.2,1.56,1.56,0,0,0,1.24-1.49Zm-17.63,14a4.55,4.55,0,0,1,.15.45,3.81,3.81,0,0,0,3.9,3.26,4.6,4.6,0,0,0,4.51-2.46,1.47,1.47,0,0,1,1.6-.91,3.66,3.66,0,0,0,3.13-1.38A6.74,6.74,0,0,0,545,533.86a1.31,1.31,0,0,1-.58,0c-2.08-.73-4.23-.46-6.33-.35-2.56.13-4.65,1.28-5.52,3.91a7.07,7.07,0,0,0-.12,4.2,5.89,5.89,0,0,0,3.64,4.08,14.23,14.23,0,0,0,1.37.4Zm-13.21-22.53c-3.2-1.79-4.14-4.74-4.58-7.9a6.48,6.48,0,0,1,1.54-5.08,3.24,3.24,0,0,1,3.69-.79,3.9,3.9,0,0,1,2,1.46,7.09,7.09,0,0,1,1.37,6c-.21.83.16,1.2,1,1a3.06,3.06,0,0,0,1.81-.75,2.53,2.53,0,0,1,1.07-.45,29.37,29.37,0,0,1,6.75-1.21A39.84,39.84,0,0,1,552.64,517a14.6,14.6,0,0,1,5.8,3.11,2.88,2.88,0,0,1,1.2,1.56.64.64,0,0,0,.8.53c.35-.09.85-.26,1-.53.94-2.17,2.87-3,4.87-3.79a4.65,4.65,0,0,1,1.51-.27,2.91,2.91,0,0,1,2.94,3.83,7.49,7.49,0,0,1-2.93,3.91c-.25.19-.54.34-.78.54a1.55,1.55,0,0,0-.47,1.9c1.25,2.59,2.56,5.16,3.69,7.8,1,2.28,1.76,4.65,2.6,7a11.22,11.22,0,0,1,.31,1.45c-1.08.15-2.09.25-3.09.44-1.63.31-3.24.68-4.86,1a9.22,9.22,0,0,0-1.48.42c-4.35,1.77-8.66,3.65-13,5.3a51.51,51.51,0,0,0-5.88,2.42,23.06,23.06,0,0,1-5.8,2,8.3,8.3,0,0,1-1.64.07c-2.41,0-4.56-1-6.81-1.66a69.78,69.78,0,0,1-6.8-2.42c-2.2-.87-4.36-1.84-6.52-2.81-.9-.4-1.77-.88-2.63-1.35s-1-.63-.85-1.8a41.81,41.81,0,0,1,.88-4.29,50.86,50.86,0,0,1,5.7-13.35,10.86,10.86,0,0,1,3-3.28,5.32,5.32,0,0,0,.93-1.18Z" transform="translate(-7.38)"/><path class="cls-22" d="M561.92,585c-6.11,2.52-12.12,5-18.14,7.47a8.88,8.88,0,0,1-1.38.31c-.08-.45-.17-.87-.21-1.28a121.7,121.7,0,0,1-.16-19.28c.27-4.33.39-8.68.52-13a1.5,1.5,0,0,1,.77-1.45c2-1.09,3.87-2.32,5.9-3.25a120.31,120.31,0,0,1,18-6.16c2.74-.76,5.49-1.46,8.24-2.18.37-.1.76-.14,1.29-.24-.31,9-.27,17.94-1.07,26.92-.4,0-.7-.06-1-.13a13.72,13.72,0,0,0-6.11-.05c-5.23,1.13-7.4,5.17-7.07,9.85.06.82.25,1.63.4,2.5Z" transform="translate(-7.38)"/><path class="cls-22" d="M508.41,577.86c-.71-3.13-1.76-30.61-1.17-33.34,7.82,5.9,16.82,9.12,26,12,0,.36,0,.67-.07,1-.29,2.59-.68,5.17-.87,7.77a167.38,167.38,0,0,0-.51,20.13c.08,1.69.35,3.37.52,5.06.07.66.09,1.33.15,2.11a7.87,7.87,0,0,1-1.11-.1q-5.34-1.33-10.68-2.7c-1.19-.3-1.23-.33-1.06-1.51a10.64,10.64,0,0,0-.28-4.22,8.41,8.41,0,0,0-9.83-6.34l-1.13.18Z" transform="translate(-7.38)"/><path class="cls-21" d="M577.21,573.36l.1-1.31a4,4,0,0,1,.74.4,15.92,15.92,0,0,1,4.81,6.91,14.82,14.82,0,0,1,1.12,6.11,8.16,8.16,0,0,1-1.25,3.79,5.16,5.16,0,0,1-2.19,1.95,14,14,0,0,1-10.14.95,8.26,8.26,0,0,1-3.57-2c-2.82-2.9-4.31-6.29-3.6-10.42a1.93,1.93,0,0,1,.15-.36c.7.6,1.36,1.21,2.06,1.76s1.23,1.29,2.27.88a1.42,1.42,0,0,0-.57-1.47c-.77-.68-1.53-1.37-2.33-2a3.42,3.42,0,0,0-1-.37c.11-1.38,1-1.31,1.92-1a12.17,12.17,0,0,1,1.92.91c.28.14.56.3.84.44s.77.29,1-.15a.78.78,0,0,0-.27-1,7.33,7.33,0,0,0-1.19-.76c-.62-.34-1.26-.65-1.89-1,0,0,0-.07-.06-.19a3.86,3.86,0,0,1,1.81-.92,11.69,11.69,0,0,1,9,.78,3.29,3.29,0,0,0,1.32.37c.46,0,.67-.35.4-.71a15.8,15.8,0,0,0-1.44-1.49Z" transform="translate(-7.38)"/><path class="cls-21" d="M506.73,578.39c-.72.36-1.33.63-1.91,1a3,3,0,0,0-.8.68.61.61,0,0,0,.11.94,1,1,0,0,0,.84.11c.69-.38,1.26-1.06,2.2-.75.08,0,.23-.2.36-.28a7.13,7.13,0,0,1,7-.12,11.66,11.66,0,0,1,1.29.9c-.48.23-.78.39-1.08.52s-.58.14-.75.32a1.28,1.28,0,0,0-.39.87.66.66,0,0,0,.92.49c.78-.24,1.56-.53,2.35-.8a3.31,3.31,0,0,1,.84,2.1l-1.91.14a.75.75,0,0,0-.79.72.73.73,0,0,0,.84.79c.69-.06,1.36-.23,2.17-.37a1.22,1.22,0,0,1,.17.55c-.08,1.06-.18,2.12-.35,3.16-.13.77-.78,1.16-1.39,1.53-1.24.75-2.54,1.42-3.76,2.21a7.69,7.69,0,0,1-3.66,1.21,8.41,8.41,0,0,1-7.63-2.9,16,16,0,0,1-3.81-8.64,10.77,10.77,0,0,1,1-5.76,14.77,14.77,0,0,1,5.32-6.22,21.21,21.21,0,0,1,2.19-1.09c.29,3,.47,5.85.6,8.72Z" transform="translate(-7.38)"/><path class="cls-23" d="M540.78,594.29l-6.47-.54c-.1-.16-.17-.22-.18-.29a108.58,108.58,0,0,1-.63-22.34c.19-2.68.34-5.36.55-8,.13-1.57.34-3.14.54-4.71a8.58,8.58,0,0,1,.27-1c2,.8,4,.66,6.07.74a10.58,10.58,0,0,1,.1,1.2c-.11,3.32-.17,6.64-.36,9.95-.44,7.54-.78,15.08.05,22.61.07.63.09,1.26.12,1.89a4.82,4.82,0,0,1-.06.55Z" transform="translate(-7.38)"/><path class="cls-20" d="M541.59,535.14a2.35,2.35,0,0,0,.77,1.83,1.11,1.11,0,0,0,1.75-1,1.08,1.08,0,0,0-.58-.76,2.6,2.6,0,0,0-1.95,0ZM545,546l-2.74-2.86c-.8.76-1.6,1.61-2.5,2.35-.67.55-.85.95-.37,1.67a2.63,2.63,0,0,0,2.68,1.14A3.27,3.27,0,0,0,545,546Zm-1.61-7.12a5.12,5.12,0,0,0,2.38,5.52,3.06,3.06,0,0,0,4.53-1.23,5.79,5.79,0,0,0-.42-6,5.45,5.45,0,0,0-4.11-1.79,3.56,3.56,0,0,1-2.37,3.54Zm-1.49-.24a4,4,0,0,1-1.73-2.38c-.43-1.38-.45-1.42-1.86-1.23a6.77,6.77,0,0,0-2.15.56,4.09,4.09,0,0,0-1.67,1.41,5,5,0,0,0,.08,5.59,5.16,5.16,0,0,0,1.85,1.58,2.7,2.7,0,0,0,3.51-.76,8.92,8.92,0,0,0,1.23-2.13,23.47,23.47,0,0,0,.75-2.64Zm-4.44,7.48a14.23,14.23,0,0,1-1.37-.4,5.89,5.89,0,0,1-3.64-4.08,7.07,7.07,0,0,1,.12-4.2c.87-2.64,3-3.79,5.52-3.91,2.1-.1,4.26-.38,6.33.35a1.31,1.31,0,0,0,.58,0A6.74,6.74,0,0,1,550.78,545a3.66,3.66,0,0,1-3.13,1.38,1.47,1.47,0,0,0-1.6.91,4.6,4.6,0,0,1-4.51,2.46,3.81,3.81,0,0,1-3.9-3.26,4.55,4.55,0,0,0-.15-.45Z" transform="translate(-7.38)"/><path class="cls-20" d="M555.12,532.1a1.56,1.56,0,0,1-1.24,1.49,1.42,1.42,0,0,1-1.38-1.2,1.46,1.46,0,0,1,1.37-1.47,1.31,1.31,0,0,1,1.24,1.18Z" transform="translate(-7.38)"/><path class="cls-20" d="M530.57,530.89a1.17,1.17,0,0,1,1.07-1.31,1.15,1.15,0,0,1,1.25,1.12,1.36,1.36,0,0,1-1.16,1.41,1.2,1.2,0,0,1-1.17-1.23Z" transform="translate(-7.38)"/><path class="cls-21" d="M541.93,538.61a23.47,23.47,0,0,1-.75,2.64,8.92,8.92,0,0,1-1.23,2.13,2.7,2.7,0,0,1-3.51.76,5.16,5.16,0,0,1-1.85-1.58,5,5,0,0,1-.08-5.59,4.09,4.09,0,0,1,1.67-1.41,6.77,6.77,0,0,1,2.15-.56c1.41-.19,1.42-.16,1.86,1.23a4,4,0,0,0,1.73,2.38Z" transform="translate(-7.38)"/><path class="cls-21" d="M543.41,538.85a3.56,3.56,0,0,0,2.37-3.54,5.45,5.45,0,0,1,4.11,1.79,5.79,5.79,0,0,1,.42,6,3.06,3.06,0,0,1-4.53,1.23,5.12,5.12,0,0,1-2.38-5.52Z" transform="translate(-7.38)"/><path class="cls-21" d="M545,546a3.27,3.27,0,0,1-2.93,2.31,2.63,2.63,0,0,1-2.68-1.14c-.48-.72-.3-1.12.37-1.67.9-.74,1.7-1.59,2.5-2.35L545,546Z" transform="translate(-7.38)"/><path class="cls-24" d="M541.59,535.14a2.6,2.6,0,0,1,1.95,0,1.08,1.08,0,0,1,.58.76,1.11,1.11,0,0,1-1.75,1,2.35,2.35,0,0,1-.77-1.83Z" transform="translate(-7.38)"/><text class="cls-25" transform="translate(589.03 517.99)">本の購入管理</text><text class="cls-26" transform="translate(585.38 567.96) rotate(0.4)">ほんかお</text></g></g></svg>